<?xml version="1.0" standalone="no"?>
<!DOCTYPE svg PUBLIC "-//W3C//DTD SVG 20010904//EN"
 "http://www.w3.org/TR/2001/REC-SVG-20010904/DTD/svg10.dtd">
<svg version="1.0" xmlns="http://www.w3.org/2000/svg"
 width="388.000000pt" height="288.000000pt" viewBox="0 0 388.000000 288.000000"
 preserveAspectRatio="xMidYMid meet">

<g transform="translate(0.000000,288.000000) scale(0.100000,-0.100000)"
fill="#000000" stroke="none">
<path d="M1335 2320 l-500 -289 0 -591 0 -591 502 -290 503 -290 147 85 c82
47 308 177 503 290 l355 205 0 591 0 591 -355 205 c-533 308 -648 374 -652
374 -2 -1 -228 -131 -503 -290z m943 -52 c240 -138 441 -254 445 -258 5 -4
-75 -56 -178 -114 l-186 -107 -152 87 c-84 48 -200 116 -259 150 l-107 63
-253 -146 c-138 -81 -257 -146 -262 -146 -11 0 -354 189 -369 202 -4 4 167
108 380 231 213 123 413 239 443 257 30 18 56 33 58 33 2 0 200 -113 440 -252z
m-218 -397 c113 -65 204 -122 204 -127 -1 -4 -95 -61 -210 -126 -173 -97 -211
-115 -227 -106 -47 25 -412 230 -415 233 -6 5 413 245 428 245 8 0 107 -54
220 -119z m-963 -42 l183 -101 0 -307 0 -306 260 -150 260 -150 0 -212 c0
-117 -3 -213 -6 -213 -4 0 -206 115 -450 256 l-444 256 0 514 c0 283 3 514 7
514 4 0 89 -45 190 -101z m1683 -413 l0 -514 -444 -256 c-244 -141 -446 -256
-450 -256 -3 0 -6 96 -6 213 l0 212 138 79 c75 44 192 111 259 150 l123 71 0
305 0 305 183 102 c100 57 185 103 190 103 4 0 7 -231 7 -514z m-1147 114
l167 -92 0 -264 c0 -145 -2 -264 -5 -264 -4 0 -357 203 -412 237 -23 13 -23
15 -23 274 l0 261 53 -30 c28 -16 127 -71 220 -122z m679 -372 c-9 -9 -421
-248 -428 -248 -2 0 -4 117 -4 259 l0 260 218 123 217 124 3 -255 c1 -140 -1
-258 -6 -263z"/>
</g>
</svg>
